Coordinates
version=1
nRows=11
nColumns=36
inDegrees=yes

Units are S.I. units (second, meters, Newtons, ...)
If the header above contains a line with 'inDegrees', this indicates whether rotational values are in degrees (yes) or radians (no).

endheader
time	pelvis_tilt	pelvis_list	pelvis_rotation	pelvis_tx	pelvis_ty	pelvis_tz	hip_flexion_r	hip_adduction_r	hip_rotation_r	knee_angle_r	knee_angle_r_beta	ankle_angle_r	subtalar_angle_r	mtp_angle_r	hip_flexion_l	hip_adduction_l	hip_rotation_l	knee_angle_l	knee_angle_l_beta	ankle_angle_l	subtalar_angle_l	mtp_angle_l	lumbar_extension	lumbar_bending	lumbar_rotation	arm_flex_r	arm_add_r	arm_rot_r	elbow_flex_r	pro_sup_r	arm_flex_l	arm_add_l	arm_rot_l	elbow_flex_l	pro_sup_l
      0.00000000	     -3.59450752	     -4.81916760	     14.00704450	      0.02121500	      1.20380197	      0.09269713	      3.55234783	      3.13728118	     -6.79832458	      5.83034942	      0.10175879	     17.17359888	     -4.86764558	     -6.13083245	      6.67531461	     -3.24282416	      5.18819286	     10.94739878	      0.19106815	     13.04075764	     -6.84419376	     -6.13083245	      4.10872096	      3.75268304	      1.31433359	     -0.05045804	     -4.04466098	     11.66508235	     23.65991940	     75.25576499	      0.77442041	     -4.75284555	     21.25546630	     21.15086803	     67.87654371
      0.01666670	     -3.73346493	     -4.40407302	     14.15053050	      0.02119111	      1.20626000	      0.09262108	      3.58950353	      3.09129516	     -6.41138178	      5.45621102	      0.09522885	     17.82651866	     -4.80106949	     -6.22189016	      7.08180455	     -2.03026351	      6.00589101	     11.22897946	      0.19598266	     13.34699097	     -6.49764694	     -6.22189016	      4.11027093	      3.65306986	      1.18223677	     -0.18617343	     -4.11252335	     10.95812167	     24.54993707	     74.39087519	      0.74352616	     -4.69525277	     20.88062319	     22.10889696	     67.43119034
      0.03333330	     -2.56292898	     -2.85909517	     14.03457467	      0.01991389	      1.20810891	      0.09384528	      1.21693703	      1.85201341	     -8.20720599	      4.09799663	      0.07152353	     18.16668650	     -1.64401211	     -6.36316720	      4.98460985	     -0.78501377	      5.25072350	     10.30765093	      0.17990245	     13.81737872	     -4.75852568	     -6.36316720	      1.64377539	      2.16763378	      1.85313125	     -0.02218871	     -2.38297460	      2.56171295	     25.58760663	     75.10123497	      1.68028394	     -4.39218625	     17.47346722	     21.93659277	     68.10891027
      0.05000000	     -1.56793735	     -2.19169091	     13.69054394	      0.01924195	      1.21059584	      0.09489215	     -0.14161345	      1.28694887	     -8.49610191	      3.86997823	      0.06754386	     18.34438528	     -0.61704524	     -7.13060543	      3.09470920	     -0.37623577	      4.78328021	      9.23498106	      0.16118083	     13.53274434	     -3.96761554	     -7.13060543	      0.00887551	      1.72574046	      2.60259903	     -0.13043020	     -1.49063632	     -4.10651523	     25.99601015	     87.05200785	      2.21052030	     -4.16304058	     14.06348530	     21.80869703	     74.83069314
      0.06666670	     -0.74395639	     -1.89166091	     13.50759708	      0.01862577	      1.21196582	      0.09567642	     -1.21253657	      1.12327405	     -8.84930189	      3.54990074	      0.06195746	     18.13070289	      0.11831661	     -7.14843964	      1.64457256	     -0.28653531	      4.39735186	      8.47521706	      0.14792044	     13.27426489	     -3.63349009	     -7.14843964	     -1.16658683	      1.68357859	      3.04254183	      0.23191614	     -1.53781522	     -4.25069374	     26.41341811	     86.81940671	      2.51155711	     -4.08631067	     13.77575712	     21.70630694	     74.69260276
      0.08333330	     -0.32686682	     -1.82474426	     13.28901143	      0.01814809	      1.20947361	      0.09613897	     -1.94002199	      1.21202480	     -8.76255291	      3.07831519	      0.05372674	     17.86604122	      0.57582712	     -7.17634481	      0.90978586	     -0.31187095	      4.19207111	      7.99952060	      0.13961797	     13.23782202	     -3.32136721	     -7.17634481	     -1.83221839	      1.75545901	      3.31869411	      0.50206859	     -1.69990093	     -4.14786707	     26.91266585	     85.95403342	      2.65954217	     -4.03998920	     13.44976409	     21.93028282	     74.08042435
      0.10000000	     -0.04958046	     -1.84073614	     13.10803200	      0.01806901	      1.21344348	      0.09639042	     -2.44036906	      1.30430694	     -8.84116408	      2.68331695	      0.04683272	     17.57036133	      0.88274990	     -7.21302638	      0.44961787	     -0.35920909	      3.96135675	      7.58722876	      0.13242212	     12.90104514	     -3.22864907	     -7.21302638	     -2.32315812	      1.89805617	      3.46334663	      0.70884254	     -1.83464170	     -3.80158409	     27.21704500	     84.58002980	      2.91765849	     -3.89037265	     13.13616174	     22.28999210	     73.17783007
      0.11666670	      0.23705854	     -1.82439355	     13.11486024	      0.01785601	      1.21379055	      0.09644646	     -3.04788954	      1.43342826	     -9.07091230	      2.27283716	      0.03966849	     17.35351267	      1.20079930	     -7.26862755	      0.11965054	     -0.39377319	      3.97634000	      7.42285128	      0.12955319	     12.66102785	     -3.11979523	     -7.26862755	     -2.85593050	      1.95224681	      3.16159814	      1.20556196	     -2.10917876	     -1.82603280	     27.12531055	     84.82143249	      3.23160340	     -3.90561671	     12.94560546	     22.47703996	     73.96110038
      0.13333330	      0.37421483	     -1.83286115	     13.14924982	      0.01753717	      1.21395600	      0.09661566	     -3.36088078	      1.57457969	     -9.34714785	      1.99705455	      0.03485518	     17.22156317	      1.61256407	     -7.29962045	     -0.00738234	     -0.44534658	      3.96102537	      7.31732062	      0.12771134	     12.26454023	     -3.10756483	     -7.29962045	     -3.15468153	      1.96223084	      2.94478297	      1.35794788	     -2.02542342	     -1.80501419	     26.93398520	     83.39451961	      3.51869119	     -3.85090252	     12.65018371	     22.47092091	     73.21096729
      0.15000000	      0.50198429	     -1.88258609	     13.09129516	      0.01746916	      1.21409908	      0.09664939	     -3.61177903	      1.73240678	     -9.25668631	      1.72622001	      0.03012822	     16.87841787	      1.49558435	     -7.33111351	     -0.06587456	     -0.52440515	      3.78664191	      7.32021163	      0.12776179	     11.76641535	     -3.45087281	     -7.33111351	     -3.40279229	      2.05439428	      2.83722998	      1.45580641	     -2.11610744	     -1.33882941	     26.76019883	     82.19181588	      3.76614245	     -3.76839380	     12.44365298	     22.38714505	     72.61443125
      0.16666670	      0.55800917	     -1.88489715	     13.08535095	      0.01727011	      1.21421942	      0.09677599	     -3.74794103	      1.78999862	     -9.45476535	      1.50345653	      0.02624027	     16.71048693	      1.86141980	     -7.36649292	     -0.07460962	     -0.56371882	      3.56552580	      7.33975635	      0.12810291	     11.21828678	     -3.58454994	     -7.36649292	     -3.54172782	      2.07284232	      2.67113617	      1.55434326	     -2.11021589	     -0.85499337	     26.55168430	     80.82437346	      3.89781746	     -3.71017835	     12.29811852	     22.29606741	     71.91024656
